# AST/ASF file generated using VICON BodyLanguage
# -----------------------------------------------
:version 1.10
:name VICON
:units
  mass 1.0
  length 0.45
  angle deg
:documentation
   .ast/.asf automatically generated from VICON data using
   VICON BodyBuilder and BodyLanguage model FoxedUp or BRILLIANT.MOD
:root
   order TX TY TZ RX RY RZ
   axis XYZ
   position 0 0 0  
   orientation 0 0 0 
:bonedata
  begin
     id 1 
     name lhipjoint
     direction 0.671379 -0.66392 0.329334 
     length 2.38647 
     axis 0 0 0  XYZ
  end
  begin
     id 2 
     name lfemur
     direction 0.34202 -0.939693 0  
     length 6.48179  
     axis 0 0 20  XYZ
    dof rx ry rz
    limits (-160.0 20.0)
           (-70.0 70.0)
           (-60.0 70.0)
  end
  begin
     id 3 
     name ltibia
     direction 0.34202 -0.939693 0   
     length 6.86524   
     axis 0 0 20   XYZ
    dof rx
    limits (-10.0 170.0)
  end
  begin
     id 4 
     name lfoot
     direction 0.204886 -0.562919 0.800715   
     length 1.73031   
     axis -90 7.62852e-016 20   XYZ
    dof rx rz
    limits (-45.0 90.0)
           (-70.0 20.0)
  end
  begin
     id 5 
     name ltoes
     direction 1.53548e-011 -4.21841e-011 1   
     length 0.828161   
     axis -90 7.62852e-016 20   XYZ
    dof rx
    limits (-90.0 20.0)
  end
  begin
     id 6 
     name rhipjoint
     direction -0.662732 -0.670855 0.332775   
     length 2.3618  
     axis 0 0 0  XYZ 
  end
  begin
     id 7 
     name rfemur
     direction -0.34202 -0.939693 0   
     length 6.3025   
     axis 0 0 -20   XYZ
    dof rx ry rz
    limits (-160.0 20.0)
           (-70.0 70.0)
           (-70.0 60.0)
  end
  begin
     id 8 
     name rtibia
     direction -0.34202 -0.939693 0   
     length 6.8732   
     axis 0 0 -20   XYZ
    dof rx
    limits (-10.0 170.0)
 end
 begin
     id 9 
     name rfoot
     direction -0.173856 -0.477665 0.861168   
     length 1.54784  
     axis -90 -7.62852e-016 -20   XYZ
    dof rx rz
    limits (-45.0 90.0)
           (-20.0 70.0)
  end
  begin
     id 10 
     name rtoes
     direction -1.53562e-011 -4.21802e-011 1   
     length 0.759618   
     axis -90 -7.62852e-016 -20   XYZ
    dof rx
    limits (-90.0 20.0)
  end
  begin
     id 11 
     name lowerback
     direction -0.0278357 0.999497 -0.0151789   
     length 1.97203   
     axis 0 0 0   XYZ
    dof rx ry rz
    limits (-20.0 45.0)
           (-30.0 30.0)
           (-30.0 30.0)
  end
  begin
     id 12 
     name upperback
     direction -0.00360622 0.997542 0.0699804   
     length 1.94709   
     axis 0 0 0   XYZ
    dof rx ry rz
    limits (-20.0 45.0)
           (-30.0 30.0)
           (-30.0 30.0)
  end
  begin
     id 13 
     name thorax
     direction 0.00907706 0.997048 0.0762461   
     length 1.95722   
     axis 0 0 0   XYZ
    dof rx ry rz
    limits (-20.0 45.0)
           (-30.0 30.0)
           (-30.0 30.0)
  end
  begin
     id 14 
     name lowerneck
     direction -0.0481835 0.99872 -0.0153927   
     length 1.63078   
     axis 0 0 0   XYZ
    dof rx ry rz
    limits (-20.0 45.0)
           (-30.0 30.0)
           (-30.0 30.0)
  end
  begin
     id 15 
     name upperneck
     direction 0.0859716 0.979226 -0.183644   
     length 1.62591   
     axis 0 0 0   XYZ
    dof rx ry rz
    limits (-20.0 45.0)
           (-30.0 30.0)
           (-30.0 30.0)
  end
  begin
     id 16
     name head
     direction 0.0324821 0.997629 -0.0606773  
     length 1.64811  
     axis 0 0 0   XYZ
    dof rx ry rz
    limits (-20.0 45.0)
           (-30.0 30.0)
           (-30.0 30.0)
  end
  begin
     id 17 
     name lclavicle
     direction 0.939609 0.311019 0.142835  
     length 3.70647  
     axis 0 0 0   XYZ
    dof ry rz
    limits (-20.0 10.0)
           (0.0 20.0)
  end
  begin
     id 18 
     name lhumerus
     direction 1 -4.48963e-011 -1.59838e-027   
     length 4.59207   
     axis 180 -30 -90   XYZ
    dof rx ry rz
    limits (-60.0 90.0)
           (-90.0 90.0)
           (-90.0 90.0)
  end
  begin
     id 19
     name lradius
     direction 1 -4.48957e-011 -1.3483e-026   
     length 2.98109   
     axis 180 -30 -90   XYZ
    dof rx
    limits (-10.0 170.0)
  end
  begin
     id 20
     name lwrist
     direction 1 -4.48954e-011 -3.11579e-026   
     length 1.49055   
     axis 2.00652e-014 90 90   XYZ
    dof ry
    limits (-180.0 0.0)
 end
  begin
     id 21 
     name lhand
     direction 1 -4.4911e-011 -6.23158e-026   
     length 0.480203   
     axis 3.97628e-014 90 90   XYZ
    dof rx rz
    limits (-90.0 90.0)
           (-45.0 45.0)
  end
  begin
     id 22 
     name lfingers
     direction 1 -4.48893e-011 -1.24632e-025   
     length 0.387152   
     axis 7.95256e-014 90 90   XYZ
    dof rx
    limits (0.0 90.0)
  end
  begin
     id 23
     name lthumb
     direction 0.707107 -6.35013e-011 0.707107   
     length 0.555875   
     axis -90 45 2.85299e-015   XYZ
    dof rx rz
    limits (-45.0 45.0)
           (-45.0 45.0)
  end
  begin
     id 24 
     name rclavicle
     direction -0.950396 0.30392 0.0661859   
     length 3.70894  
     axis 0 0 0   XYZ 
    dof ry rz
    limits (-10.0 20.0)
           (-20.0 0.0)
  end
  begin
     id 25 
     name rhumerus
     direction -1 -4.48957e-011 -2.96677e-027  
     length 4.76508   
     axis 180 30 90   XYZ
    dof rx ry rz
    limits (-90.0 60.0)
           (-90.0 90.0)
           (-90.0 90.0)
  end
  begin
     id 26 
     name rradius
     direction -1 -4.48974e-011 -1.44501e-026   
     length 2.78902   
     axis 180 30 90   XYZ
    dof rx
    limits (-10.0 170.0)
  end
  begin
     id 27 
     name rwrist
     direction -1 -4.48978e-011 -3.11579e-026   
     length 1.39451   
     axis 2.00652e-014 -90 -90   XYZ
    dof ry
    limits (-180.0 0.0)
  end
  begin
     id 28
     name rhand
     direction -1 -4.48956e-011 -6.23158e-026   
     length 0.721303   
     axis 3.97628e-014 -90 -90   XYZ
    dof rx rz
    limits (-90.0 90.0)
           (-45.0 45.0)
  end
  begin
     id 29
     name rfingers
     direction -1 -4.4899e-011 -1.24632e-025   
     length 0.581533   
     axis 7.95256e-014 -90 -90   XYZ
    dof rx
    limits (0.0 90.0)
  end
  begin
     id 30
     name rthumb
     direction -0.707107 -6.34911e-011 0.707107   
     length 0.834968   
     axis -90 -45 -2.85299e-015   XYZ
    dof rx rz
    limits (-45.0 45.0)
           (-45.0 45.0)
  end
:hierarchy
  begin
    root lhipjoint rhipjoint lowerback
    lhipjoint lfemur
    lfemur ltibia
    ltibia lfoot
    lfoot ltoes
    rhipjoint rfemur
    rfemur rtibia
    rtibia rfoot
    rfoot rtoes
    lowerback upperback
    upperback thorax
    thorax lowerneck lclavicle rclavicle
    lowerneck upperneck
    upperneck head
    lclavicle lhumerus
    lhumerus lradius
    lradius lwrist
    lwrist lhand lthumb
    lhand lfingers
    rclavicle rhumerus
    rhumerus rradius
    rradius rwrist
    rwrist rhand rthumb
    rhand rfingers
  end

#!OML:ASF I:\salsa\salsa 7_09\Patient 1\Session 1\dancerfemale.ASF
:FULLY-SPECIFIED
:DEGREES
389
root 6.32089 15.6839 -1.66716 -77.1836 -97.6175 -282.605
lowerback 5.06394 0.655129 -0.659257
upperback -10.9568 0.565158 1.15369
thorax -14.939 0.276436 1.59302
lowerneck 3.68182 -0.275998 -12.2554
upperneck 11.9896 -2.829 19.2513
head 3.21814 -1.53006 8.08506
rclavicle 6.36111e-015 2.38542e-015
rhumerus -18.0404 -22.8769 -70.1493
rradius 34.0872
rwrist 16.7986
rhand 4.17536 60.0121
rfingers 7.12502
rthumb 29.5831 32.3501
lclavicle 6.36111e-015 2.38542e-015
lhumerus -41.4104 -2.12322 78.4995
lradius 64.5645
lwrist -42.2253
lhand -16.4566 -13.8592
lfingers 7.12502
lthumb 9.75968 375.895
rfemur -14.6116 4.43326 33.7437
rtibia 23.7964
rfoot -26.2819 -26.9799
rtoes 46.6085
lfemur -23.0939 -0.127762 -11.1646
ltibia 79.8764
lfoot 8.09161 9.344
ltoes 18.2093
390
root 6.12876 15.6545 -1.6973 -63.5864 -99.8118 -296.296
lowerback 4.85134 0.315138 -0.0356513
upperback -10.9631 0.262942 2.12428
thorax -14.805 0.124117 2.38086
lowerneck 3.20234 0.67497 -11.3374
upperneck 12.9666 -1.558 18.6912
head 3.3709 -0.847056 7.76645
rclavicle 2.5842e-015 5.56597e-015
rhumerus -17.9772 -21.9391 -71.8758
rradius 34.4562
rwrist 16.1334
rhand 5.36589 59.9751
rfingers 7.12502
rthumb 30.7189 32.5204
lclavicle 2.5842e-015 5.56597e-015
lhumerus -42.0275 -1.83975 79.8163
lradius 63.0839
lwrist -42.6101
lhand -17.7171 -11.9466
lfingers 7.12502
lthumb 8.54336 377.861
rfemur -12.9111 4.79014 35.6198
rtibia 22.5034
rfoot -25.2833 -25.3983
rtoes 45.8099
lfemur -26.2439 0.424892 -9.68045
ltibia 82.7236
lfoot 6.80157 10.0568
ltoes 16.8856
391
root 5.94275 15.6186 -1.71818 -53.1836 -102.348 -306.782
lowerback 4.77436 0.116628 0.413234
upperback -10.9335 0.112312 2.9852
thorax -14.7223 0.0531218 3.1184
lowerneck 2.84594 1.60331 -10.4194
upperneck 13.675 -0.30421 18.2141
head 3.4487 -0.179185 7.47158
rclavicle 1.19271e-014 1.07344e-014
rhumerus -18.5974 -20.4885 -73.2715
rradius 35.6183
rwrist 14.9155
rhand 6.32202 59.6247
rfingers 7.12502
rthumb 31.6301 32.3453
lclavicle 1.19271e-014 1.07344e-014
lhumerus -42.5728 -1.49284 81.1238
lradius 61.9797
lwrist -42.5446
lhand -18.7795 -9.58781
lfingers 7.12502
lthumb 7.51797 380.259
rfemur -11.3992 5.24348 37.1234
rtibia 21.6229
rfoot -24.365 -23.4682
rtoes 45.0897
lfemur -29.1531 0.195787 -8.38989
ltibia 84.5651
lfoot 5.45451 11.4781
ltoes 16.7786
392
root 5.76223 15.5853 -1.7302 -44.728 -105.203 -315.26
lowerback 4.79368 0.0701073 0.676725
upperback -10.8903 0.130561 3.73669
thorax -14.6961 0.0739239 3.8126
lowerneck 2.53947 2.52324 -9.69762
upperneck 14.2001 0.93443 17.9484
head 3.48046 0.475392 7.27861
rclavicle -5.36719e-015 3.89618e-014
rhumerus -19.7794 -18.6097 -74.3077
rradius 37.2662
rwrist 13.2456
rhand 7.20328 59.496
rfingers 7.12502
rthumb 32.4692 32.3852
lclavicle -5.36719e-015 3.89618e-014
lhumerus -43.221 -1.12967 82.4307
lradius 61.5189
lwrist -42.089
lhand -19.5028 -6.98038
lfingers 7.12502
lthumb 6.81984 382.89
rfemur -10.2094 5.13776 38.2409
rtibia 21.2143
rfoot -23.3079 -20.7197
rtoes 44.0307
lfemur -31.8353 -0.0960205 -7.12752
ltibia 85.4443
lfoot 3.94 12.8807
ltoes 16.9745
393
root 5.58188 15.5529 -1.73846 -37.3537 -108.329 -322.678
lowerback 4.90047 0.145156 0.635321
upperback -10.8171 0.263549 4.32973
thorax -14.7002 0.173184 4.48454
lowerneck 2.21297 3.49521 -9.08194
upperneck 14.6077 2.24716 17.8293
head 3.47935 1.16817 7.15003
rclavicle -3.71727e-014 2.60408e-014
rhumerus -21.4756 -16.3512 -75.0719
rradius 39.3363
rwrist 11.6099
rhand 7.62053 59.4162
rfingers 7.12502
rthumb 32.8661 32.3879
lclavicle -3.71727e-014 2.60408e-014
lhumerus -43.934 -0.646155 83.5694
lradius 61.4741
lwrist -41.7813
lhand -20.629 -4.47127
lfingers 7.12502
lthumb 5.73252 385.431
rfemur -9.32361 4.43254 38.818
rtibia 21.2827
rfoot -22.3512 -17.2737
rtoes 42.1411
lfemur -34.0355 -0.451943 -5.93652
ltibia 85.2767
lfoot 2.39681 14.445
ltoes 17.3131
394
root 5.39029 15.5328 -1.74162 -31.1785 -111.717 -328.93
lowerback 4.90994 0.286516 0.480441
upperback -10.6898 0.455638 4.7811
thorax -14.5836 0.301072 5.04639
lowerneck 1.84114 4.52612 -8.53471
upperneck 14.9638 3.64812 17.7583
head 3.46719 1.90704 7.04767
rclavicle 3.8117e-014 3.926e-014
rhumerus -23.3919 -13.992 -75.6269
rradius 41.3437
rwrist 10.36
rhand 7.86399 59.6475
rfingers 7.12502
rthumb 33.0977 32.6679
lclavicle 3.8117e-014 3.926e-014
lhumerus -44.7515 -0.376505 84.6419
lradius 61.81
lwrist -41.509
lhand -22.0688 -1.76221
lfingers 7.12502
lthumb 4.34232 388.173
rfemur -8.37832 4.71126 38.9634
rtibia 21.5201
rfoot -21.9311 -14.5314
rtoes 40.378
lfemur -35.6624 -1.09752 -4.74917
ltibia 84.0784
lfoot 0.621663 15.9546
ltoes 17.5882
395
root 5.18661 15.5189 -1.73809 -25.8926 -115.296 -334.3
lowerback 4.73832 0.468349 0.274099
upperback -10.5135 0.675073 5.06171
thorax -14.2946 0.431919 5.43155
lowerneck 1.42395 5.55037 -8.06386
upperneck 15.3394 5.0385 17.6927
head 3.47803 2.64065 6.96194
rclavicle -2.73888e-014 -4.40277e-014
rhumerus -25.4985 -11.2529 -76.1081
rradius 43.3374
rwrist 9.41806
rhand 7.26287 59.8259
rfingers 7.12502
rthumb 32.5259 32.7268
lclavicle -2.73888e-014 -4.40277e-014
lhumerus -45.6264 -0.376688 85.6667
lradius 62.6683
lwrist -41.2215
lhand -22.9924 1.20167
lfingers 7.12502
lthumb 3.45046 391.153
rfemur -7.31403 5.96583 38.698
rtibia 21.7293
rfoot -21.8475 -12.4441
rtoes 39.4193
lfemur -36.6624 -2.22745 -3.54313
ltibia 81.8196
lfoot -0.874047 17.6714
ltoes 17.1511
396
root 4.98055 15.5288 -1.73441 -21.3326 -119.051 -338.705
lowerback 4.40859 0.700591 0.132567
upperback -10.4855 0.940551 5.16298
thorax -14.0853 0.562286 5.57651
lowerneck 1.12843 6.59014 -7.50645
upperneck 15.7228 6.43255 17.6202
head 3.48338 3.37371 6.85549
rclavicle 4.35835e-014 -1.19271e-015
rhumerus -27.9436 -8.71654 -76.439
rradius 45.1762
rwrist 9.2533
rhand 6.34932 60.4659
rfingers 7.12502
rthumb 31.6561 33.1916
lclavicle 4.35835e-014 -1.19271e-015
lhumerus -46.7332 -0.402239 86.5375
lradius 63.9409
lwrist -41.0758
lhand -23.5589 3.86209
lfingers 7.12502
lthumb 2.90339 393.822
rfemur -6.35432 7.735 38.1816
rtibia 21.5875
rfoot -21.6701 -10.6334
rtoes 38.8947
lfemur -37.3702 -3.71447 -2.05449
ltibia 78.6293
lfoot -1.68738 17.9338
ltoes 18.1681
397
root 4.76706 15.5625 -1.72341 -17.3856 -122.898 -342.436
lowerback 4.10951 0.919344 0.150901
upperback -10.5492 1.19023 5.14071
thorax -13.9964 0.659415 5.50193
lowerneck 0.791976 7.73096 -6.98132
upperneck 16.2005 7.96141 17.5171
head 3.51803 4.17539 6.7496
rclavicle -4.36332e-014 -2.24627e-014
rhumerus -30.6041 -5.86808 -76.7178
rradius 46.907
rwrist 8.65312
rhand 5.56367 60.86
rfingers 7.12502
rthumb 30.9075 33.441
lclavicle -4.36332e-014 -2.24627e-014
lhumerus -48.0024 -0.0846282 87.245
lradius 65.5923
lwrist -40.8972
lhand -24.2844 6.79869
lfingers 7.12502
lthumb 2.2027 396.767
rfemur -5.40401 9.64046 37.3173
rtibia 21.0058
rfoot -21.0132 -8.89822
rtoes 38.3795
lfemur -37.4619 -6.07305 -0.344936
ltibia 74.4593
lfoot -1.64856 16.6722
ltoes 16.9758
